PathFileType	4	(X/Y/Z)	/Users/niels/Desktop/University/Third Semester/Perception and Action/Exam/Gymnastics Motion Tracking/Code for Gym Tracking/Analyzed Data/Webcam_Backflip/id5_4_trajectory_Sports2D/id5_4_trajectory_Sports2D_px_person00.trc
DataRate	CameraRate	NumFrames	NumMarkers	Units	OrigDataRate	OrigDataStartFrame	OrigNumFrames
29.770992366412216	29.770992366412216	12	22	m	29.770992366412216	65	131
Frame#	Time	Hip			RHip			RKnee			RAnkle			RBigToe			RSmallToe			RHeel			LHip			LKnee			LAnkle			LBigToe			LSmallToe			LHeel			Neck			Head			Nose			RShoulder			RElbow			RWrist			LShoulder			LElbow			LWrist		
		X1	Y1	Z1	X2	Y2	Z2	X3	Y3	Z3	X4	Y4	Z4	X5	Y5	Z5	X6	Y6	Z6	X7	Y7	Z7	X8	Y8	Z8	X9	Y9	Z9	X10	Y10	Z10	X11	Y11	Z11	X12	Y12	Z12	X13	Y13	Z13	X14	Y14	Z14	X15	Y15	Z15	X16	Y16	Z16	X17	Y17	Z17	X18	Y18	Z18	X19	Y19	Z19	X20	Y20	Z20	X21	Y21	Z21	X22	Y22	Z22
65	2.183333333333333	0.9366412181405637	-0.8598334758951749	0.0	0.9322006653891061	-0.8629419661062835	0.0	0.990959285554675	-0.9850492117470686	0.0	0.95996708910589	-1.0842510782909072	0.0	0.9851336754751169	-1.1034329739326898	0.0	0.9706471520799901	-1.1027804846175704	0.0	0.9477958783010414	-1.0923719439102546	0.0	0.9364666080459785	-0.8591481008370058	0.0	0.9868888714269942	-0.9818525593839917	0.0	0.9585563317935061	-1.0776527085125072	0.0	0.996467390329842	-1.0985829436499503	0.0	0.972040834819788	-1.0904460810767829	0.0	0.9419911926988872	-1.0746361802524595	0.0	0.948567918317677	-0.695691502627825	0.0	0.9398714486979068	-0.6167703888085735	0.0	0.9689734928847648	-0.6475286536425227	0.0	0.9479184052202404	-0.7061381557232067	0.0	1.0220657888221538	-0.6827160226073131	0.0	1.0521460544691061	-0.6379080604796104	0.0	0.9500712782373029	-0.7010861930801988	0.0	1.0234339195918052	-0.6797142186377808	0.0	1.0506818529803201	-0.6332088072494445	0.0
66	2.2169230769230768	0.9435483320425495	-0.8378633416364302	0.0	0.9397353802958403	-0.8404305609495651	0.0	0.9971799508690267	-0.9641068285408017	0.0	0.9635415828105034	-1.0683192817471665	0.0	0.9845764986368278	-1.092306686251041	0.0	0.9715701655422149	-1.0916332885788707	0.0	0.9507913143979766	-1.0777198829640287	0.0	0.9425494352797719	-0.8367724161745826	0.0	0.9922405270463771	-0.9606437058327937	0.0	0.962273478388648	-1.0623375824487946	0.0	0.996676395199769	-1.0893065838321556	0.0	0.9755066557565113	-1.082978898681271	0.0	0.9448936185842736	-1.0626739615428005	0.0	0.9309657898968087	-0.6765380138543563	0.0	0.9088162224866174	-0.5994650246037562	0.0	0.9431807243425114	-0.6254492628261963	0.0	0.9326916924870995	-0.684386387399786	0.0	1.0057731942358197	-0.6440046918038097	0.0	1.0205557322961163	-0.586348421255328	0.0	0.9327550548297486	-0.6798011054026574	0.0	1.0068460649841815	-0.6430495273700624	0.0	1.0201159723284798	-0.5841207590641097	0.0
67	2.2505128205128204	0.9488163852405674	-0.8083201097987328	0.0	0.9460230677018165	-0.8104535165297224	0.0	1.0094918224327094	-0.9280346361647361	0.0	0.971585617733942	-1.0383692761351961	0.0	0.9889250627006927	-1.068344174350402	0.0	0.9778734195709495	-1.0674958303067437	0.0	0.9579552562363088	-1.0493183852928247	0.0	0.9471088940395556	-0.8068463097439091	0.0	1.003057610947754	-0.9241504750508337	0.0	0.970436348196243	-1.0329720671334237	0.0	1.0005364366441436	-1.0659373756053205	0.0	0.9827196829783237	-1.0611128562135654	0.0	0.9520781192383915	-1.037637090337527	0.0	0.9115636974065752	-0.6535221889766792	0.0	0.876223480573289	-0.5804038399106214	0.0	0.9158179972213066	-0.6006074415083712	0.0	0.9147781000752468	-0.658733818099404	0.0	0.9846612439341487	-0.6114683773584016	0.0	0.9875305251514584	-0.5471850389461812	0.0	0.913528871294654	-0.655182619197602	0.0	0.9861938214275651	-0.6117508436314583	0.0	0.9894546934801729	-0.5465520412126483	0.0
68	2.2841025641025636	0.9518849122324361	-0.7749857852509697	0.0	0.9502782220832796	-0.7769048386899139	0.0	1.0263254488143965	-0.8781839266040681	0.0	0.9855737532580583	-0.9936227174819087	0.0	1.0007741258973866	-1.0291586978117864	0.0	0.991851997341959	-1.0283712409285366	0.0	0.9711363138056929	-1.0062626046265588	0.0	0.9497301484119032	-0.7731209060061284	0.0	1.018026025815568	-0.8739144937203385	0.0	0.9843132982312008	-0.9887237075316764	0.0	1.0106840394771914	-1.0261117694905617	0.0	0.9958006229224939	-1.0229002471934212	0.0	0.9652113671308451	-0.9980175273436275	0.0	0.8912144412046774	-0.6299887992298354	0.0	0.8438404137168424	-0.5626670353477919	0.0	0.888102454189926	-0.5765378166237993	0.0	0.8951817486723693	-0.6328629155441003	0.0	0.9629208913648394	-0.5875088728973987	0.0	0.960749593413357	-0.5207675559344731	0.0	0.8936183029684522	-0.630708398979106	0.0	0.9653850137295201	-0.5879971364630714	0.0	0.9657812886405448	-0.5211018174218686	0.0
69	2.3176923076923073	0.9530297476866529	-0.7418958454304301	0.0	0.9525504427677101	-0.743824311391927	0.0	1.0436794750484368	-0.8172516166620972	0.0	1.0055035898657767	-0.9352942466219891	0.0	1.0212075112053183	-0.9733379389031398	0.0	1.0143921824725524	-0.9732437765396637	0.0	0.9909717382291316	-0.9498448159711556	0.0	0.950759188351399	-0.7395900565697866	0.0	1.0337943217370154	-0.813011970244851	0.0	1.0038180967277963	-0.9309113115956124	0.0	1.0286732380047734	-0.9693936174764236	0.0	1.0166838212954825	-0.9680983381049968	0.0	0.9849171843254612	-0.9448793180453792	0.0	0.8712091337189619	-0.609296827943435	0.0	0.8137705144450482	-0.5493176043705851	0.0	0.8613782453994424	-0.5568602837656518	0.0	0.8756971176257478	-0.6104435304594727	0.0	0.9439028558268178	-0.5720680445619095	0.0	0.9442749294711995	-0.5051479678209994	0.0	0.8745727062192277	-0.6097088320227799	0.0	0.9471451590634311	-0.5718577266675131	0.0	0.9519510660660144	-0.506014685643395	0.0
70	2.351282051282051	0.9534484332461172	-0.7120248122954359	0.0	0.95393797488073	-0.7140716899839789	0.0	1.0562749066057575	-0.7492557159410156	0.0	1.0293961156800226	-0.8663867287821002	0.0	1.0487334364857805	-0.9012494331384058	0.0	1.0438955789659417	-0.902603495336181	0.0	1.0161692677048886	-0.8831280441332274	0.0	0.9513305085601662	-0.7092628752027716	0.0	1.0457515013826413	-0.7458276610435766	0.0	1.0271246346537493	-0.8626120626406838	0.0	1.0533967606827914	-0.8970446093781327	0.0	1.0444903206005904	-0.8979087677576387	0.0	1.0102036765547764	-0.8809070728823557	0.0	0.8530356148114883	-0.5940465149693167	0.0	0.7877827771549584	-0.5427290290016024	0.0	0.8370546834549109	-0.5442244705638404	0.0	0.858394729158109	-0.5940150954829921	0.0	0.9296391673700878	-0.5634267202914034	0.0	0.9385140718744527	-0.4974244232423512	0.0	0.8579267722647261	-0.5946437749335549	0.0	0.9326453694126524	-0.5620705862779465	0.0	0.9469007946123492	-0.49848865189030284	0.0
71	2.3848717948717946	0.9548210643705705	-0.6863795121331854	0.0	0.956181130469605	-0.6884580638491861	0.0	1.059465727739637	-0.6795327157327686	0.0	1.0534077801572632	-0.7908100549754807	0.0	1.0784983955439837	-0.8154426548203302	0.0	1.0754903880631577	-0.8187658256356066	0.0	1.0433459437164234	-0.8096587646437763	0.0	0.9528967175237817	-0.6832481760613388	0.0	1.0493945223803332	-0.6777577257772304	0.0	1.0506487229917558	-0.7876811219561144	0.0	1.0801896837730123	-0.8117771884624575	0.0	1.074292219201039	-0.8147310949299502	0.0	1.0380696362479838	-0.8090896631009401	0.0	0.8382123199497094	-0.5858224608427807	0.0	0.7672618023789534	-0.5443803416206136	0.0	0.8166024069553951	-0.5399475027541447	0.0	0.8451644139279895	-0.5846389054261221	0.0	0.9208114788195134	-0.5592177652720551	0.0	0.9408254190245805	-0.49443346382991255	0.0	0.8450082490385837	-0.5869691355353439	0.0	0.9218821245387753	-0.5570504826574344	0.0	0.9471983408588318	-0.4956116291101217	0.0
72	2.418461538461538	0.9585721377117655	-0.6641381540916194	0.0	0.9607612466964301	-0.6659739833736281	0.0	1.0509549282772894	-0.6141909724952855	0.0	1.07252250113243	-0.7125145547515229	0.0	1.1026113235584014	-0.7205237445014064	0.0	1.1014515454621325	-0.7258599208338449	0.0	1.0673710855065075	-0.732406572265324	0.0	0.9565807891086063	-0.6608182845747023	0.0	1.0420815919316768	-0.6146246215094735	0.0	1.0695253349918366	-0.7099880869561315	0.0	1.101611622794273	-0.7180911386152921	0.0	1.0982799700073445	-0.7226170653314915	0.0	1.0635810015487885	-0.7320041992877199	0.0	0.8281717315592699	-0.5852339962259264	0.0	0.7535347336718596	-0.5549517323385046	0.0	0.8013671031274735	-0.5443526475488119	0.0	0.8373788513218863	-0.5822332321454879	0.0	0.9169010341102855	-0.5573601705055826	0.0	0.946585924238209	-0.49340000301381737	0.0	0.8369903041113903	-0.5871800977725624	0.0	0.9144339729632719	-0.5556855202542588	0.0	0.9488653337169939	-0.4950427982867729	0.0
73	2.452051282051282	0.965186058257728	-0.643631335412118	0.0	0.9680653108711952	-0.6447911588635307	0.0	1.0314493414926875	-0.5588809820338896	0.0	1.0815980314624989	-0.6353943209601606	0.0	1.112410226773843	-0.623166469205733	0.0	1.1133494421479468	-0.6300696482452828	0.0	1.082169156794698	-0.6539994777334892	0.0	0.962727166403262	-0.6403819523554092	0.0	1.024254948665709	-0.5616699563272399	0.0	1.078659551744785	-0.6334342853201399	0.0	1.1100217525378167	-0.6226592546246505	0.0	1.1084152823951408	-0.6278786076799159	0.0	1.080631016681071	-0.6522883578398668	0.0	0.8241668412714027	-0.5919952188807429	0.0	0.7481254405037184	-0.5744265347301147	0.0	0.7925074998443189	-0.5571872556768515	0.0	0.835769136784417	-0.586013672761885	0.0	0.9165652903167922	-0.556615761059621	0.0	0.9507632315031769	-0.49266840025792624	0.0	0.8349605931784115	-0.5947006928715702	0.0	0.9100222090827208	-0.5575156909319638	0.0	0.9485651766289117	-0.49543004920910244	0.0
74	2.4856410256410255	0.9738309813052588	-0.6232837465744665	0.0	0.9770839760568985	-0.623238298213947	0.0	1.0039540089962693	-0.5175291976208147	0.0	1.0765654078186495	-0.5638336445485338	0.0	1.1017590309177954	-0.5322159435261811	0.0	1.1049816092365057	-0.5399388905949137	0.0	1.0821529576303273	-0.5779821537387692	0.0	0.9706570770412885	-0.6204016533986086	0.0	0.9989834460754572	-0.5224454829286048	0.0	1.074058201664121	-0.562320943700495	0.0	1.1003711542031636	-0.5338932598815176	0.0	1.0992717372688179	-0.5387984007792379	0.0	1.0833477489366137	-0.573702907121375	0.0	0.8272476282492294	-0.6049450533252106	0.0	0.7527995149201299	-0.6019338755317603	0.0	0.7912252711634049	-0.5776946831387328	0.0	0.8405929774285421	-0.5947670677779372	0.0	0.9181942357522249	-0.5566065250204623	0.0	0.9494694309267627	-0.4920017815843363	0.0	0.8398335266660187	-0.6078275760494402	0.0	0.9085868489233648	-0.5621867486250165	0.0	0.944070702400104	-0.49644090756587755	0.0
75	2.5192307692307687	0.9825932318232338	-0.6021695710848631	0.0	0.9857843493113613	-0.6005246007986121	0.0	0.9723603062278326	-0.491820941102977	0.0	1.0555493752975125	-0.5028945204595135	0.0	1.0693164025432316	-0.4575087114648637	0.0	1.0745050222492014	-0.4652348891779845	0.0	1.06409609724846	-0.5096831284637484	0.0	0.9787672806580795	-0.5999141004573486	0.0	0.9702893927095243	-0.4983148463585586	0.0	1.05392077817069	-0.5013361933200671	0.0	1.0715002578078672	-0.46061434065316925	0.0	1.0696787719914136	-0.46437680593696695	0.0	1.0679438667266856	-0.5019182863250582	0.0	0.8381774863374091	-0.6220259147734718	0.0	0.7692218676087569	-0.6352997315333332	0.0	0.7988489392395216	-0.6043206886038306	0.0	0.8518397022457845	-0.6070191080328384	0.0	0.9203422749579947	-0.5574662670497631	0.0	0.9409280021107063	-0.4923842762642882	0.0	0.8520980641216697	-0.6239797057592635	0.0	0.9099224992975319	-0.5687903098894751	0.0	0.9345275297881075	-0.4986142406889295	0.0
76	2.5528205128205124	0.9892343352582594	-0.5803955499847927	0.0	0.9919039793390372	-0.5771904749735502	0.0	0.9403457424473853	-0.4814785794210539	0.0	1.0194867933962142	-0.4574809307326039	0.0	1.0186851176490441	-0.4071140088783393	0.0	1.0249002937643072	-0.41402784251320685	0.0	1.0284418636952952	-0.4554798158043002	0.0	0.9850001519195094	-0.5790198830122931	0.0	0.9416997025810873	-0.48870962687158676	0.0	1.0191089245474527	-0.45496866835202915	0.0	1.0258040779884217	-0.410235247656118	0.0	1.0225634390752019	-0.4124735373893053	0.0	1.0342882027236395	-0.44420193993477225	0.0	0.8571349357704959	-0.6404097082136743	0.0	0.7982240319199838	-0.6708601946858636	0.0	0.8163770839553487	-0.634388287788357	0.0	0.869273762316656	-0.6210663337248638	0.0	0.9220001908899504	-0.5595107295627716	0.0	0.9258055157032725	-0.495744216773142	0.0	0.8714996935341646	-0.6401657485232606	0.0	0.9132897033986929	-0.5759595535262588	0.0	0.920646373106952	-0.5033264916830267	0.0
